# Hierarchical Translation and Rotation (.htr) file
# Generated by EVaRT
[Header]
FileType htr
DataType HTRS
FileVersion 1
NumSegments 23
NumFrames 4
DataFrameRate 120
EulerRotationOrder ZYX
CalibrationUnits mm
RotationUnits Degrees
GlobalAxisofGravity Y
BoneLengthAxis Y
ScaleFactor 1
[SegmentNames&Hierarchy]
#CHILD            PARENT
DaveRoot          GLOBAL
Spine1            DaveRoot
Spine2            Spine1
Spine3            Spine2
Spine4            Spine3
Neck              Spine4
Head              Neck
LClavicle         Spine4
LUpperArm         LClavicle
LLowerArm         LUpperArm
LHand             LLowerArm
RClavicle         Spine4
RUpperArm         RClavicle
RLowerArm         RUpperArm
RHand             RLowerArm
RUpperLeg         DaveRoot
RLowerLeg         RUpperLeg
RFoot             RLowerLeg
RToes             RFoot
LUpperLeg         DaveRoot
LLowerLeg         LUpperLeg
LFoot             LLowerLeg
LToes             LFoot
[BasePosition]
#SegmentName      Tx   Ty   Tz   Rx   Ry   Rz   BoneLength
DaveRoot          -2055.569378	951.555595	-349.488296	-55.286396	87.050266	-65.121985	100.000000
Spine1            0.000000	100.000000	0.000000	-15.583766	0.109194	-2.004305	100.000000
Spine2            0.000000	100.000000	0.000000	5.873579	0.737526	-1.849210	100.000000
Spine3            0.000000	100.000000	0.000000	12.197367	0.936767	-1.756723	100.000000
Spine4            0.000000	100.000000	0.000000	13.310112	2.040835	-0.212222	100.000000
Neck              0.000000	100.000000	0.000000	12.619245	0.173111	5.676401	80.000000
Head              0.000000	80.000000	0.000000	-46.107413	-7.464542	12.340102	200.000000
LClavicle         0.000000	100.000000	0.000000	1.044460	-1.911847	-125.483710	200.000000
LUpperArm         0.000000	200.000000	0.000000	43.357802	45.679579	2.001361	300.000000
LLowerArm         0.000000	300.000000	0.000000	0.730208	2.175812	1.895763	200.000000
LHand             0.000000	200.000000	0.000000	7.864047	-1.768569	8.793625	120.000000
RClavicle         0.000000	100.000000	0.000000	-0.545713	-3.840301	119.120382	200.000000
RUpperArm         0.000000	200.000000	0.000000	38.253382	-38.646808	20.273438	300.000000
RLowerArm         0.000000	300.000000	0.000000	3.077531	-3.682026	-7.348670	200.000000
RHand             0.000000	200.000000	0.000000	24.943087	4.220171	-5.193807	120.000000
RUpperLeg         -115.911102	-10.000000	31.058285	22.464267	14.037388	-176.329742	530.000000
RLowerLeg         0.000000	530.000000	0.000000	-23.704548	0.479387	-2.520024	460.000000
RFoot             0.000000	460.000000	0.000000	90.327319	5.730808	-0.531790	130.000000
RToes             0.000000	130.000000	0.000000	18.726053	0.005479	-0.002881	100.000000
LUpperLeg         115.911102	-10.000000	31.058285	16.272232	9.077962	178.396881	530.000000
LLowerLeg         0.000000	530.000000	0.000000	-9.044305	-3.275937	3.046484	460.000000
LFoot             0.000000	460.000000	0.000000	80.193205	-12.160808	23.252942	130.000000
LToes             0.000000	130.000000	0.000000	33.283153	-0.000000	-0.000086	100.000000
#Beginning of Data.
[DaveRoot]
#Fr	Tx	Ty	Tz	Rx	Ry	Rz	SF
556	2105.781554	-672.222676	-1.985708	101.980577	4.852362	-75.250682	1.000000	
557	2106.155360	-673.267238	-1.851951	101.839726	4.840289	-75.192137	1.000000	
558	2106.511370	-674.211282	-1.900282	101.725879	4.859775	-75.130798	1.000000	
559	2106.836797	-675.054131	-2.129747	101.648589	4.906521	-75.054893	1.000000	
[Spine1]
#Fr	Tx	Ty	Tz	Rx	Ry	Rz	SF
556	0.000000	0.000000	0.000000	2.439849	-1.622319	6.316271	1.000000	
557	0.000000	0.000000	0.000000	2.470151	-1.660133	6.311759	1.000000	
558	0.000000	0.000000	0.000000	2.495640	-1.692096	6.327337	1.000000	
559	0.000000	0.000000	0.000000	2.513505	-1.725941	6.359769	1.000000	
[Spine2]
#Fr	Tx	Ty	Tz	Rx	Ry	Rz	SF
556	0.000000	0.000000	0.000000	2.439849	-1.622319	6.316271	1.000000	
557	0.000000	0.000000	0.000000	2.470151	-1.660133	6.311759	1.000000	
558	0.000000	0.000000	0.000000	2.495640	-1.692096	6.327337	1.000000	
559	0.000000	0.000000	0.000000	2.513505	-1.725941	6.359769	1.000000	
[Spine3]
#Fr	Tx	Ty	Tz	Rx	Ry	Rz	SF
556	0.000000	0.000000	0.000000	2.439849	-1.622319	6.316271	1.000000	
557	0.000000	0.000000	0.000000	2.470151	-1.660133	6.311759	1.000000	
558	0.000000	0.000000	0.000000	2.495640	-1.692096	6.327337	1.000000	
559	0.000000	0.000000	0.000000	2.513505	-1.725941	6.359769	1.000000	
[Spine4]
#Fr	Tx	Ty	Tz	Rx	Ry	Rz	SF
556	0.000000	0.000000	0.000000	2.439849	-1.622319	6.316271	1.000000	
557	0.000000	0.000000	0.000000	2.470151	-1.660133	6.311759	1.000000	
558	0.000000	0.000000	0.000000	2.495640	-1.692096	6.327337	1.000000	
559	0.000000	0.000000	0.000000	2.513505	-1.725941	6.359769	1.000000	
[Neck]
#Fr	Tx	Ty	Tz	Rx	Ry	Rz	SF
556	0.000000	0.000000	0.000000	5.981993	11.704190	-12.045253	1.000000	
557	0.000000	0.000000	0.000000	6.019280	11.708048	-12.048344	1.000000	
558	0.000000	0.000000	0.000000	6.045383	11.702176	-12.059319	1.000000	
559	0.000000	0.000000	0.000000	6.063004	11.686832	-12.072584	1.000000	
[Head]
#Fr	Tx	Ty	Tz	Rx	Ry	Rz	SF
556	0.000000	0.000000	0.000000	5.981993	11.704190	-12.045253	1.000000	
557	0.000000	0.000000	0.000000	6.019280	11.708048	-12.048344	1.000000	
558	0.000000	0.000000	0.000000	6.045383	11.702176	-12.059319	1.000000	
559	0.000000	0.000000	0.000000	6.063004	11.686832	-12.072584	1.000000	
[LClavicle]
#Fr	Tx	Ty	Tz	Rx	Ry	Rz	SF
556	0.000000	0.000000	0.000000	17.751590	-9.563387	48.442409	1.000000	
557	0.000000	0.000000	0.000000	17.746115	-9.494207	48.281936	1.000000	
558	0.000000	0.000000	0.000000	17.778438	-9.464820	48.165128	1.000000	
559	0.000000	0.000000	0.000000	17.864157	-9.483071	48.090147	1.000000	
[LUpperArm]
#Fr	Tx	Ty	Tz	Rx	Ry	Rz	SF
556	0.000000	0.000000	0.000000	68.531106	-30.127814	-77.897429	1.000000	
557	0.000000	0.000000	0.000000	68.357168	-30.191287	-77.389872	1.000000	
558	0.000000	0.000000	0.000000	68.203545	-30.227670	-76.939488	1.000000	
559	0.000000	0.000000	0.000000	68.070743	-30.257518	-76.612256	1.000000	
[LLowerArm]
#Fr	Tx	Ty	Tz	Rx	Ry	Rz	SF
556	0.000000	0.000000	0.000000	67.458671	-0.000000	-0.000000	1.000000	
557	0.000000	0.000000	0.000000	67.153988	-0.000000	-0.000000	1.000000	
558	0.000000	0.000000	0.000000	66.852172	-0.000000	-0.000000	1.000000	
559	0.000000	0.000000	0.000000	66.612762	-0.000000	-0.000000	1.000000	
[LHand]
#Fr	Tx	Ty	Tz	Rx	Ry	Rz	SF
556	0.000000	0.000000	0.000000	-2.646287	-0.000000	0.000000	1.000000	
557	0.000000	0.000000	0.000000	-2.045116	0.000000	0.000000	1.000000	
558	0.000000	0.000000	0.000000	-1.389304	0.000000	0.000000	1.000000	
559	0.000000	0.000000	0.000000	-0.705226	-0.000000	0.000000	1.000000	
[RClavicle]
#Fr	Tx	Ty	Tz	Rx	Ry	Rz	SF
556	0.000000	0.000000	0.000000	8.324447	2.531054	-28.090677	1.000000	
557	0.000000	0.000000	0.000000	8.382709	2.549311	-28.092391	1.000000	
558	0.000000	0.000000	0.000000	8.434237	2.570913	-28.127535	1.000000	
559	0.000000	0.000000	0.000000	8.485484	2.594865	-28.177151	1.000000	
[RUpperArm]
#Fr	Tx	Ty	Tz	Rx	Ry	Rz	SF
556	0.000000	0.000000	0.000000	40.937314	31.173347	5.570823	1.000000	
557	0.000000	0.000000	0.000000	41.053418	31.257722	6.129220	1.000000	
558	0.000000	0.000000	0.000000	41.191604	31.341892	6.747373	1.000000	
559	0.000000	0.000000	0.000000	41.358772	31.415418	7.404595	1.000000	
[RLowerArm]
#Fr	Tx	Ty	Tz	Rx	Ry	Rz	SF
556	0.000000	0.000000	0.000000	89.500451	-0.000000	-0.000000	1.000000	
557	0.000000	0.000000	0.000000	89.662670	-0.000000	-0.000000	1.000000	
558	0.000000	0.000000	0.000000	89.833364	-0.000000	-0.000000	1.000000	
559	0.000000	0.000000	0.000000	89.986936	-0.000000	-0.000000	1.000000	
[RHand]
#Fr	Tx	Ty	Tz	Rx	Ry	Rz	SF
556	0.000000	0.000000	0.000000	2.071330	-36.330786	-22.630234	1.000000	
557	0.000000	0.000000	0.000000	1.973965	-36.183787	-22.466183	1.000000	
558	0.000000	0.000000	0.000000	1.884023	-36.077982	-22.335381	1.000000	
559	0.000000	0.000000	0.000000	1.831456	-36.013291	-22.250571	1.000000	
[RUpperLeg]
#Fr	Tx	Ty	Tz	Rx	Ry	Rz	SF
556	0.000000	0.000000	0.000000	39.329982	-17.979149	28.081894	1.000000	
557	0.000000	0.000000	0.000000	39.302150	-18.181699	27.693927	1.000000	
558	0.000000	0.000000	0.000000	39.298011	-18.359324	27.384327	1.000000	
559	0.000000	0.000000	0.000000	39.322121	-18.454181	27.179583	1.000000	
[RLowerLeg]
#Fr	Tx	Ty	Tz	Rx	Ry	Rz	SF
556	0.000000	0.000000	0.000000	17.206618	0.000000	0.000000	1.000000	
557	0.000000	0.000000	0.000000	17.218255	0.000000	0.000000	1.000000	
558	0.000000	0.000000	0.000000	17.190941	0.000000	0.000000	1.000000	
559	0.000000	0.000000	0.000000	17.128140	0.000000	0.000000	1.000000	
[RFoot]
#Fr	Tx	Ty	Tz	Rx	Ry	Rz	SF
556	0.000000	0.000000	0.000000	-12.497864	12.456312	-9.937874	1.000000	
557	0.000000	0.000000	0.000000	-12.670352	12.221349	-10.297563	1.000000	
558	0.000000	0.000000	0.000000	-12.697634	12.283653	-10.646064	1.000000	
559	0.000000	0.000000	0.000000	-12.564428	12.631131	-10.896969	1.000000	
[RToes]
#Fr	Tx	Ty	Tz	Rx	Ry	Rz	SF
556	0.000000	0.000000	0.000000	-14.976293	0.000000	0.000000	1.000000	
557	0.000000	0.000000	0.000000	-14.435819	-0.000000	0.000000	1.000000	
558	0.000000	0.000000	0.000000	-14.332785	0.000000	0.000000	1.000000	
559	0.000000	0.000000	0.000000	-14.679798	-0.000000	0.000000	1.000000	
[LUpperLeg]
#Fr	Tx	Ty	Tz	Rx	Ry	Rz	SF
556	0.000000	0.000000	0.000000	24.323285	7.330105	23.581376	1.000000	
557	0.000000	0.000000	0.000000	24.161212	7.226346	23.348436	1.000000	
558	0.000000	0.000000	0.000000	24.057818	7.095152	23.135231	1.000000	
559	0.000000	0.000000	0.000000	24.028841	6.992037	22.958179	1.000000	
[LLowerLeg]
#Fr	Tx	Ty	Tz	Rx	Ry	Rz	SF
556	0.000000	0.000000	0.000000	6.300805	0.000000	-0.000000	1.000000	
557	0.000000	0.000000	0.000000	6.166649	0.000000	-0.000000	1.000000	
558	0.000000	0.000000	0.000000	6.027507	0.000000	-0.000000	1.000000	
559	0.000000	0.000000	0.000000	5.886188	0.000000	-0.000000	1.000000	
[LFoot]
#Fr	Tx	Ty	Tz	Rx	Ry	Rz	SF
556	0.000000	0.000000	0.000000	-21.535499	-2.098131	-2.460529	1.000000	
557	0.000000	0.000000	0.000000	-21.562986	-2.549336	-2.307249	1.000000	
558	0.000000	0.000000	0.000000	-21.558944	-3.092677	-2.034749	1.000000	
559	0.000000	0.000000	0.000000	-21.557990	-3.614926	-1.654762	1.000000	
[LToes]
#Fr	Tx	Ty	Tz	Rx	Ry	Rz	SF
556	0.000000	0.000000	0.000000	1.293335	-0.000000	0.000000	1.000000	
557	0.000000	0.000000	0.000000	0.995724	-0.000000	0.000000	1.000000	
558	0.000000	0.000000	0.000000	0.617191	-0.000000	0.000000	1.000000	
559	0.000000	0.000000	0.000000	0.255737	-0.000000	0.000000	1.000000	
